<svg width="1101" height="279" viewBox="0 0 1101 279" fill="none" xmlns="http://www.w3.org/2000/svg">
<path d="M623 227.368C623 248.798 483.879 279 312.264 279C140.65 279 19 248.798 19 227.368C19 205.937 140.65 245.471 312.264 245.471C483.879 245.471 623 205.937 623 227.368Z" fill="#FFCF40"/>
<path d="M102.45 102.45H202.35V113.25C202.35 127.05 199.95 140.05 195.15 152.25C190.35 164.35 183.55 175 174.75 184.2C166.05 193.4 155.8 200.6 144 205.8C132.2 211 119.25 213.6 105.15 213.6C90.75 213.6 77.55 210.95 65.55 205.65C53.55 200.25 43.15 192.85 34.35 183.45C25.55 173.95 18.75 163 13.95 150.6C9.15 138.2 6.75 124.95 6.75 110.85C6.75 96.85 9.15 83.65 13.95 71.25C18.75 58.85 25.55 47.95 34.35 38.55C43.15 29.15 53.55 21.8 65.55 16.5C77.55 11.1 90.75 8.39998 105.15 8.39998C114.95 8.39998 123.9 9.49999 132 11.7C140.2 13.8 147.55 16.8 154.05 20.7C160.65 24.5 166.5 28.85 171.6 33.75C176.7 38.55 181.1 43.65 184.8 49.05L161.55 61.5C155.55 53.2 147.85 46.35 138.45 40.95C129.05 35.55 117.95 32.85 105.15 32.85C94.75 32.85 85.15 34.9 76.35 39C67.55 43.1 59.9 48.75 53.4 55.95C47 63.15 42.05 71.45 38.55 80.85C35.05 90.25 33.3 100.25 33.3 110.85C33.3 121.45 35.05 131.5 38.55 141C42.05 150.4 47 158.75 53.4 166.05C59.9 173.25 67.55 178.9 76.35 183C85.15 187.1 94.75 189.15 105.15 189.15C115.05 189.15 124.1 187.45 132.3 184.05C140.5 180.65 147.65 175.95 153.75 169.95C159.85 163.95 164.65 156.95 168.15 148.95C171.65 140.95 173.6 132.35 174 123.15H102.45V102.45ZM264.375 213.6C251.675 213.6 240.375 210.75 230.475 205.05C220.675 199.35 212.975 191.65 207.375 181.95C201.775 172.15 198.975 161.1 198.975 148.8C198.975 136.5 201.775 125.4 207.375 115.5C212.975 105.6 220.675 97.75 230.475 91.95C240.375 86.15 251.675 83.25 264.375 83.25C276.975 83.25 288.125 86.15 297.825 91.95C307.625 97.75 315.275 105.6 320.775 115.5C326.275 125.4 329.025 136.5 329.025 148.8C329.025 161.1 326.275 172.15 320.775 181.95C315.275 191.65 307.625 199.35 297.825 205.05C288.125 210.75 276.975 213.6 264.375 213.6ZM264.375 191.25C272.375 191.25 279.325 189.4 285.225 185.7C291.225 182 295.875 176.95 299.175 170.55C302.475 164.05 304.125 156.75 304.125 148.65C304.125 140.55 302.475 133.25 299.175 126.75C295.875 120.25 291.225 115.1 285.225 111.3C279.325 107.5 272.375 105.6 264.375 105.6C256.275 105.6 249.225 107.5 243.225 111.3C237.225 115.1 232.525 120.25 229.125 126.75C225.825 133.25 224.175 140.55 224.175 148.65C224.175 156.75 225.825 164.05 229.125 170.55C232.525 176.95 237.225 182 243.225 185.7C249.225 189.4 256.275 191.25 264.375 191.25ZM390.961 213.6C378.261 213.6 366.961 210.75 357.061 205.05C347.261 199.35 339.561 191.65 333.961 181.95C328.361 172.15 325.561 161.1 325.561 148.8C325.561 136.5 328.361 125.4 333.961 115.5C339.561 105.6 347.261 97.75 357.061 91.95C366.961 86.15 378.261 83.25 390.961 83.25C403.561 83.25 414.711 86.15 424.411 91.95C434.211 97.75 441.861 105.6 447.361 115.5C452.861 125.4 455.611 136.5 455.611 148.8C455.611 161.1 452.861 172.15 447.361 181.95C441.861 191.65 434.211 199.35 424.411 205.05C414.711 210.75 403.561 213.6 390.961 213.6ZM390.961 191.25C398.961 191.25 405.911 189.4 411.811 185.7C417.811 182 422.461 176.95 425.761 170.55C429.061 164.05 430.711 156.75 430.711 148.65C430.711 140.55 429.061 133.25 425.761 126.75C422.461 120.25 417.811 115.1 411.811 111.3C405.911 107.5 398.961 105.6 390.961 105.6C382.861 105.6 375.811 107.5 369.811 111.3C363.811 115.1 359.111 120.25 355.711 126.75C352.411 133.25 350.761 140.55 350.761 148.65C350.761 156.75 352.411 164.05 355.711 170.55C359.111 176.95 363.811 182 369.811 185.7C375.811 189.4 382.861 191.25 390.961 191.25ZM514.847 213.6C503.547 213.6 493.397 210.9 484.397 205.5C475.497 200.1 468.447 192.55 463.247 182.85C458.147 173.05 455.597 161.6 455.597 148.5C455.597 135.4 458.147 124 463.247 114.3C468.447 104.5 475.497 96.9 484.397 91.5C493.397 86 503.547 83.25 514.847 83.25C523.947 83.25 531.947 84.85 538.847 88.05C545.747 91.15 551.247 94.8 555.347 99C559.447 103.2 561.797 106.85 562.397 109.95V3.59999H588.647V210H562.847V186C561.747 189.4 558.997 193.25 554.597 197.55C550.297 201.85 544.747 205.6 537.947 208.8C531.147 212 523.447 213.6 514.847 213.6ZM520.847 192C528.447 192 535.397 190.2 541.697 186.6C547.997 183 552.997 177.95 556.697 171.45C560.497 164.85 562.397 157.2 562.397 148.5C562.397 139.8 560.497 132.2 556.697 125.7C552.997 119.1 547.997 114 541.697 110.4C535.397 106.7 528.447 104.85 520.847 104.85C513.847 104.85 507.347 106.65 501.347 110.25C495.347 113.85 490.497 118.9 486.797 125.4C483.197 131.9 481.397 139.6 481.397 148.5C481.397 157.4 483.197 165.1 486.797 171.6C490.497 178.1 495.347 183.15 501.347 186.75C507.347 190.25 513.847 192 520.847 192ZM654.771 12H699.321L777.471 210H729.621L715.221 170.25H639.021L624.471 210H576.471L654.771 12ZM654.021 130.95H700.371L677.421 66H676.971L654.021 130.95ZM770.505 12H838.455C849.755 12 860.205 13.55 869.805 16.65C879.505 19.75 887.305 24.85 893.205 31.95C899.205 38.95 902.205 48.45 902.205 60.45C902.205 68.35 900.705 75.4 897.705 81.6C894.805 87.8 890.905 92.9 886.005 96.9C881.205 100.8 875.955 103.4 870.255 104.7C875.255 105.3 880.105 106.75 884.805 109.05C889.605 111.25 893.905 114.35 897.705 118.35C901.605 122.25 904.655 127.15 906.855 133.05C909.155 138.85 910.305 145.75 910.305 153.75C910.305 164.85 907.805 174.65 902.805 183.15C897.905 191.55 890.705 198.15 881.205 202.95C871.805 207.65 860.255 210 846.555 210H770.505V12ZM815.355 174.15H835.755C842.155 174.15 847.355 173.2 851.355 171.3C855.455 169.3 858.455 166.5 860.355 162.9C862.255 159.2 863.205 154.8 863.205 149.7C863.205 141.7 860.705 135.85 855.705 132.15C850.805 128.35 843.905 126.45 835.005 126.45H815.355V174.15ZM815.355 91.35H833.505C838.805 91.35 843.205 90.4 846.705 88.5C850.305 86.6 853.005 83.95 854.805 80.55C856.705 77.05 857.655 73.05 857.655 68.55C857.655 60.45 855.355 55 850.755 52.2C846.155 49.3 839.855 47.85 831.855 47.85H815.355V91.35ZM974.74 12H1019.29L1097.44 210H1049.59L1035.19 170.25H958.99L944.44 210H896.44L974.74 12ZM973.99 130.95H1020.34L997.39 66H996.94L973.99 130.95Z" fill="#0866FF"/>
</svg>
